<svg xmlns="http://www.w3.org/2000/svg" xmlns:xlink="http://www.w3.org/1999/xlink" viewBox="0 0 87.51 68.34"><defs><style>.a{fill:url(#a);}.b{fill:url(#b);}.c{fill:url(#c);}.d{fill:#c22900;stroke:#e8eaea;stroke-miterlimit:10;stroke-width:1.46px;}</style><radialGradient id="a" cx="42.41" cy="62.38" r="16.53" gradientUnits="userSpaceOnUse"><stop offset="0" stop-color="#3fa9f5"/><stop offset="0.49" stop-color="#2d6389"/><stop offset="0.98" stop-color="#1a1a1a"/></radialGradient><radialGradient id="b" cx="44.78" cy="38.57" r="92.49" gradientTransform="translate(0 1.16) scale(1 0.98)" xlink:href="#a"/><radialGradient id="c" cx="43.51" cy="20.13" r="17.67" gradientUnits="userSpaceOnUse"><stop offset="0" stop-color="#daf8ff"/><stop offset="0.22" stop-color="#d7f7ff"/><stop offset="0.38" stop-color="#cef2fe"/><stop offset="0.51" stop-color="#beeafd"/><stop offset="0.64" stop-color="#a8defc"/><stop offset="0.76" stop-color="#8bd0fa"/><stop offset="0.87" stop-color="#68bef8"/><stop offset="0.98" stop-color="#3fa9f5"/></radialGradient></defs><rect class="a" x="33.44" y="58" width="17.95" height="8.76" rx="1"/><path class="b" d="M39.34,8A6.33,6.33,0,0,1,50.22,8L66.66,36,88.54,73.25,44.31,65,1,73.25,22.9,36Z" transform="translate(-1.02 -4.91)"/><ellipse class="c" cx="43.51" cy="20.13" rx="8.5" ry="17.17"/><polygon class="d" points="33.44 47.31 27.03 47.31 27.03 40.91 22.76 40.91 22.76 47.31 16.35 47.31 16.35 51.59 22.76 51.59 22.76 58 27.03 58 27.03 51.59 33.44 51.59 33.44 47.31"/><polygon class="d" points="71.04 47.46 64.63 47.46 64.63 41.05 60.36 41.05 60.36 47.46 53.95 47.46 53.95 51.73 60.36 51.73 60.36 58.14 64.63 58.14 64.63 51.73 71.04 51.73 71.04 47.46"/></svg>